<svg width="49" height="49" viewBox="0 0 49 49" fill="none" xmlns="http://www.w3.org/2000/svg">
<path d="M11.0607 26.2306C10.4749 25.6448 9.52513 25.6448 8.93934 26.2306C8.35355 26.8164 8.35355 27.7661 8.93934 28.3519L11.0607 26.2306ZM38.855 17.0607C39.4408 16.4749 39.4408 15.5251 38.855 14.9393C38.2692 14.3536 37.3194 14.3536 36.7337 14.9393L38.855 17.0607ZM45.5 24.5C45.5 36.098 36.098 45.5 24.5 45.5V48.5C37.7548 48.5 48.5 37.7548 48.5 24.5H45.5ZM24.5 45.5C12.902 45.5 3.5 36.098 3.5 24.5H0.5C0.5 37.7548 11.2452 48.5 24.5 48.5V45.5ZM3.5 24.5C3.5 12.902 12.902 3.5 24.5 3.5V0.5C11.2452 0.5 0.5 11.2452 0.5 24.5H3.5ZM24.5 3.5C36.098 3.5 45.5 12.902 45.5 24.5H48.5C48.5 11.2452 37.7548 0.5 24.5 0.5V3.5ZM20.2694 35.4393L19.3122 34.4821L17.1909 36.6034L18.1481 37.5607L20.2694 35.4393ZM19.3122 34.4821L11.0607 26.2306L8.93934 28.3519L17.1909 36.6034L19.3122 34.4821ZM18.2694 37.6462L19.3122 36.6034L17.1909 34.4821L16.1481 35.5249L18.2694 37.6462ZM19.3122 36.6034L38.855 17.0607L36.7337 14.9393L17.1909 34.4821L19.3122 36.6034Z" fill="white"/>
</svg>
